<svg width="18" height="18" viewBox="0 0 18 18" fill="none" xmlns="http://www.w3.org/2000/svg">
<path d="M9.00039 15.75L9.00099 16.5C9.37678 16.4997 9.7438 16.3865 10.0544 16.1751C12.8722 14.2622 14.1232 12.9285 14.8321 12.0647L14.8323 12.0646C16.3303 10.2383 17.0839 8.31232 17.0629 6.20253L17.0628 6.20239C17.0367 3.62427 14.967 1.5 12.4077 1.5C10.8699 1.5 9.73952 2.21972 9.00026 2.9284C8.26121 2.22023 7.13095 1.5 5.59305 1.5C3.03387 1.5 0.964077 3.62423 0.937929 6.20204L0.937928 6.20218C0.916912 8.3115 1.66967 10.2375 3.16859 12.0643L3.16865 12.0644C3.87754 12.9281 5.12834 14.2616 7.94555 16.1742M7.94555 16.1742C7.94528 16.174 7.94502 16.1738 7.94476 16.1736L8.36758 15.5542L7.94634 16.1747C7.94607 16.1745 7.94581 16.1744 7.94555 16.1742Z" stroke="#EFA142" stroke-width="1.5"/>
</svg>
